<?xml version="1.0" standalone="no"?>
<!DOCTYPE svg PUBLIC "-//W3C//DTD SVG 20010904//EN"
 "http://www.w3.org/TR/2001/REC-SVG-20010904/DTD/svg10.dtd">
<svg version="1.0" xmlns="http://www.w3.org/2000/svg"
 width="128.000000pt" height="128.000000pt" viewBox="0 0 128.000000 128.000000"
 preserveAspectRatio="xMidYMid meet">

<g transform="translate(0.000000,128.000000) scale(0.100000,-0.100000)"
fill="#000000" stroke="none">
<path d="M86 1189 l-26 -31 0 -513 c0 -344 4 -522 11 -538 6 -12 18 -28 28
-34 21 -13 724 -21 753 -8 9 3 25 19 35 33 17 25 18 51 15 316 l-3 289 161
156 160 156 0 49 c0 46 -3 53 -53 103 -50 49 -58 53 -100 53 -41 0 -51 -5
-100 -50 -30 -27 -58 -50 -61 -50 -3 0 -6 11 -6 24 0 12 -11 35 -25 50 l-24
26 -370 0 -369 0 -26 -31z m151 -46 c-3 -21 -9 -50 -12 -66 -9 -35 9 -57 46
-57 41 0 59 38 35 75 -10 14 -16 38 -14 53 3 27 4 27 83 27 l80 0 3 -31 c2
-19 -3 -36 -12 -44 -19 -15 -21 -51 -4 -68 15 -15 61 -15 76 0 17 17 15 53 -4
68 -9 8 -14 25 -12 44 l3 31 80 0 c79 0 80 0 83 -27 2 -15 -4 -39 -14 -53 -24
-36 -6 -75 34 -75 15 0 33 5 40 12 15 15 16 64 2 73 -5 3 -10 22 -10 41 0 34
0 34 48 34 26 0 52 -4 58 -8 19 -12 34 -49 34 -83 0 -28 -24 -57 -214 -248
l-214 -216 -56 -140 c-74 -183 -75 -182 109 -110 l139 55 111 110 c61 60 112
110 115 110 3 0 4 -117 2 -259 -2 -213 -5 -261 -17 -271 -16 -13 -640 -28
-687 -17 -47 12 -49 28 -46 556 3 561 -4 521 91 521 l49 0 -5 -37z m748 -83
c19 -21 17 -23 -198 -238 -187 -186 -219 -215 -228 -199 -5 9 -18 17 -27 17
-10 0 76 93 203 220 121 121 223 220 226 220 3 0 14 -9 24 -20z m80 -80 c19
-21 17 -23 -197 -237 l-216 -215 -22 22 -22 22 213 214 c118 118 217 214 220
214 3 0 14 -9 24 -20z m-537 -415 c6 -13 24 -31 40 -39 40 -20 48 -44 19 -55
-12 -5 -57 -23 -100 -41 -44 -17 -81 -29 -84 -26 -3 3 7 36 22 73 15 37 31 78
36 91 12 31 52 30 67 -3z"/>
</g>
</svg>
